<svg width="267" height="76" viewBox="0 0 267 76" fill="none" xmlns="http://www.w3.org/2000/svg">
<path d="M27.5295 50.1275L47.8013 72.0775" stroke="white" stroke-width="8"/>
<path d="M26.2783 4C38.5822 4.00004 48.5566 13.9744 48.5566 26.2783C48.5566 38.5822 38.5822 48.5566 26.2783 48.5566C13.9744 48.5566 4.00004 38.5822 4 26.2783C4 13.9744 13.9744 4 26.2783 4Z" stroke="white" stroke-width="8"/>
<path d="M26.0278 39.0419L26.0278 75.0807" stroke="white" stroke-width="8"/>
<rect x="22" y="24" width="8" height="8" fill="white"/>
<path d="M86.176 37.232C81.532 37.232 79.768 40.364 79.768 43.532C79.768 46.772 81.532 49.904 86.176 49.904C90.856 49.904 92.62 46.772 92.62 43.532C92.62 40.364 90.856 37.232 86.176 37.232ZM75.016 60.272V33.92H79.984V36.656H80.056C81.532 34.352 84.376 33.416 87.364 33.416C94.636 33.416 97.804 38.708 97.804 43.532C97.804 48.428 94.636 53.72 87.364 53.72C83.404 53.72 80.416 51.524 80.056 50.372H79.984V60.272H75.016ZM121.48 39.608V48.644C121.48 49.688 122.236 49.724 122.56 49.724C123.028 49.724 123.784 49.688 124.18 49.616V53.108C123.208 53.288 122.344 53.54 120.652 53.54C117.412 53.54 117.052 51.812 116.908 51.092C115.936 52.028 113.524 53.72 107.944 53.72C102.976 53.72 100.168 51.488 100.168 47.744C100.168 42.488 105.568 42.02 108.736 41.732C115.864 41.048 116.62 40.796 116.62 39.32C116.62 37.124 114.1 36.584 111.22 36.584C107.944 36.584 106.18 37.628 106 39.752H101.14C101.86 34.748 105.568 33.2 111.22 33.2C121.192 33.2 121.48 37.124 121.48 39.608ZM116.512 45.332V43.496C115.072 44.108 113.524 44.288 109.996 44.684C106.252 45.116 105.352 45.944 105.352 47.564C105.352 50.084 107.656 50.552 109.348 50.552C112.012 50.552 116.512 49.544 116.512 45.332ZM126.344 53V33.92H131.312V37.628H131.384C132.716 35.468 134.768 33.416 138.584 33.416C139.34 33.416 139.916 33.488 140.564 33.596V38.492C139.196 38.06 138.26 38.024 137.396 38.024C134.876 38.024 131.312 39.356 131.312 43.784V53H126.344ZM144.556 47.672V37.52H140.596V33.92H144.556V28.016H149.524V33.92H154.708V37.52H149.524V46.232C149.524 48.428 149.632 49.616 151.324 49.616C152.548 49.616 153.7 49.58 154.888 49.544V53.144C153.556 53.324 152.584 53.432 151.072 53.432C145.024 53.432 144.556 51.272 144.556 47.672ZM157.668 53V33.92H162.636V36.8H162.708C164.328 34.748 166.848 33.416 170.232 33.416C174.336 33.416 178.332 34.892 178.332 40.04V53H173.364V41.624C173.364 39.572 172.68 37.232 168.576 37.232C165.984 37.232 162.636 38.672 162.636 42.74V53H157.668ZM204.92 44.72H186.92C187.028 46.844 188.468 50.12 193.4 50.12C196.676 50.12 198.116 48.968 199.088 47.384H204.488C203.408 49.508 200.816 53.72 193.544 53.72C184.94 53.72 181.736 48.716 181.736 43.64C181.736 37.268 186.452 33.2 193.22 33.2C201.68 33.2 204.92 38.42 204.92 44V44.72ZM186.92 41.552H199.736C199.124 37.736 195.74 36.584 193.292 36.584C190.988 36.584 187.748 37.664 186.92 41.552ZM208.329 53V33.92H213.297V37.628H213.369C214.701 35.468 216.753 33.416 220.569 33.416C221.325 33.416 221.901 33.488 222.549 33.596V38.492C221.181 38.06 220.245 38.024 219.381 38.024C216.861 38.024 213.297 39.356 213.297 43.784V53H208.329ZM225.605 53V27.296H231.005V53H225.605ZM261.673 56.384L257.137 52.496C255.157 53.288 252.781 53.72 249.937 53.72C239.065 53.72 234.817 47.384 234.817 40.148C234.817 32.912 239.065 26.576 249.937 26.576C260.809 26.576 265.057 32.912 265.057 40.148C265.057 44.144 263.761 47.888 260.737 50.408L264.265 53.396L261.673 56.384ZM253.285 49.184L250.909 47.132L253.465 44.18L256.885 47.096C258.541 45.44 259.441 43.028 259.441 40.148C259.441 34.496 255.985 30.608 249.937 30.608C243.889 30.608 240.433 34.496 240.433 40.148C240.433 45.8 243.889 49.688 249.937 49.688C251.161 49.688 252.313 49.544 253.285 49.184Z" fill="white"/>
</svg>
